# xmcd CD database file
#
# Track frame offsets:
#	150
#	15888
#	33709
#	50092
#	70482
#	86438
#	110733
#	131677
#	144644
#	155004
#	168985
#	219355
#	261379
#	283741
#
# Disc length: 4094 seconds
#
# Revision: 0
# Processed by: cddbd v1.5.2PL0 Copyright (c) Steve Scherf et al.
# Submitted via: CDex 1.51
#
DISCID=d40ffc0e
DTITLE=Miles Davis - Miles Ahead and Bags' Groove
DYEAR=2008
DGENRE=Jazz
TTITLE0=01 Springsville
TTITLE1=02  	The Maids of Cadiz
TTITLE2=03  The Duke
TTITLE3=04   My Ship
TTITLE4=05  Miles Ahead
TTITLE5=06  Blues for Pablo
TTITLE6=07  New Rhumba
TTITLE7=08  The Meaning of the Blues
TTITLE8=09  Lament
TTITLE9=10 I Don't Wanna Be Kissed (By Anyone But You)
TTITLE10=11  Bag's Groove (take 1)
TTITLE11=12  Bag's Groove (take 2)
TTITLE12=13  Airegin
TTITLE13=14  Oleo
EXTD=YEAR: 2008
EXTT0=
EXTT1=
EXTT2=
EXTT3=
EXTT4=
EXTT5=
EXTT6=
EXTT7=
EXTT8=
EXTT9=
EXTT10=
EXTT11=
EXTT12=
EXTT13=
PLAYORDER=
